<svg width="45" height="42" viewBox="0 0 45 42" fill="none" xmlns="http://www.w3.org/2000/svg">
<path d="M3.20126 19.2065C3.6256 19.2065 4.03257 19.3751 4.33263 19.6751C4.63269 19.9752 4.80126 20.3821 4.80126 20.8065C4.80126 23.7769 5.98125 26.6257 8.08166 28.7261C10.1821 30.8265 13.0308 32.0065 16.0013 32.0065H39.3389L35.6685 28.3393L35.4637 28.0897C35.2578 27.7821 35.1651 27.4126 35.2011 27.0442C35.2371 26.6758 35.3998 26.3314 35.6613 26.0694C35.9228 25.8075 36.2671 25.6444 36.6354 25.6078C37.0037 25.5713 37.3733 25.6635 37.6813 25.8689L37.9341 26.0769L44.3341 32.4769C44.634 32.7769 44.8025 33.1838 44.8025 33.6081C44.8025 34.0323 44.634 34.4392 44.3341 34.7393L37.9341 41.1393C37.7855 41.288 37.6091 41.4061 37.4149 41.4867C37.2208 41.5673 37.0126 41.6088 36.8024 41.609C36.5922 41.6091 36.384 41.5679 36.1897 41.4875C35.9954 41.4072 35.8188 41.2894 35.6701 41.1409C35.5213 40.9923 35.4033 40.8159 35.3227 40.6218C35.2421 40.4276 35.2005 40.2194 35.2004 40.0092C35.2002 39.799 35.2415 39.5908 35.3218 39.3965C35.4021 39.2022 35.5199 39.0256 35.6685 38.8769L39.3389 35.2065H16.0013C12.1821 35.2065 8.51944 33.6893 5.81892 30.9888C3.1184 28.2883 1.60126 24.6256 1.60126 20.8065C1.60126 20.3821 1.76983 19.9752 2.06989 19.6751C2.36995 19.3751 2.77691 19.2065 3.20126 19.2065ZM7.12126 0.268884C7.42919 0.0635169 7.79879 -0.0287392 8.16711 0.00783174C8.53543 0.0444027 8.87967 0.207538 9.14121 0.469448C9.40274 0.731357 9.56538 1.07584 9.60142 1.44421C9.63746 1.81258 9.54467 2.18205 9.33886 2.48968L9.13086 2.73928L5.46366 6.40648H28.8013C32.6204 6.40648 36.2831 7.92362 38.9836 10.6241C41.6841 13.3247 43.2013 16.9874 43.2013 20.8065C43.2013 21.2308 43.0327 21.6378 42.7326 21.9379C42.4326 22.2379 42.0256 22.4065 41.6013 22.4065C41.1769 22.4065 40.7699 22.2379 40.4699 21.9379C40.1698 21.6378 40.0013 21.2308 40.0013 20.8065C40.0013 17.8361 38.8213 14.9873 36.7209 12.8869C34.6204 10.7865 31.7717 9.60648 28.8013 9.60648H5.46366L9.13086 13.2769L9.33886 13.5265C9.5428 13.8342 9.63407 14.2029 9.5972 14.5702C9.56033 14.9375 9.39759 15.2808 9.13657 15.5418C8.87554 15.8028 8.53229 15.9656 8.165 16.0024C7.7977 16.0393 7.42895 15.948 7.12126 15.7441L6.86846 15.5393L0.468458 9.13928C0.168505 8.83924 0 8.43235 0 8.00808C0 7.58382 0.168505 7.17693 0.468458 6.87688L6.86846 0.476884L7.12126 0.268884Z" fill="#070707"/>
</svg>
