<svg width="48" height="48" viewBox="0 0 48 48" fill="none" xmlns="http://www.w3.org/2000/svg">
<path d="M24 30H21V42H24V30Z" fill="#070707"/>
<path d="M13.5 6C16.2836 6.00397 18.952 7.11149 20.9202 9.07976C22.8885 11.048 23.996 13.7164 24 16.5V21H21V16.5C21 15.0166 20.5601 13.5666 19.736 12.3332C18.9119 11.0999 17.7406 10.1386 16.3701 9.5709C14.9997 9.00325 13.4917 8.85472 12.0368 9.14411C10.582 9.4335 9.24559 10.1478 8.1967 11.1967C7.1478 12.2456 6.4335 13.582 6.14411 15.0368C5.85472 16.4917 6.00325 17.9997 6.5709 19.3701C7.13856 20.7406 8.09985 21.9119 9.33322 22.736C10.5666 23.5601 12.0166 24 13.5 24H39.258L32.379 17.121L34.5 15L45 25.5L34.5 36L32.379 33.879L39.258 27H13.5C10.7152 27 8.04451 25.8938 6.07538 23.9246C4.10625 21.9555 3 19.2848 3 16.5C3 13.7152 4.10625 11.0445 6.07538 9.07538C8.04451 7.10625 10.7152 6 13.5 6Z" fill="#070707"/>
</svg>
