<svg width="32" height="32" viewBox="0 0 32 32" fill="none" xmlns="http://www.w3.org/2000/svg">
<path d="M16 4V6.66667" stroke="#F6F6F6" stroke-width="4" stroke-linecap="round" stroke-linejoin="round"/>
<path d="M15.9999 6.66666C11.5866 6.66666 7.99992 10.2533 7.99992 14.6667V22.6667C6.66659 22.6667 5.33325 24 5.33325 25.3333H15.9999M15.9999 6.66666C20.4133 6.66666 23.9999 10.2533 23.9999 14.6667V22.6667C25.3333 22.6667 26.6666 24 26.6666 25.3333H15.9999" fill="#F6F6F6"/>
<path d="M15.9999 6.66666C11.5866 6.66666 7.99992 10.2533 7.99992 14.6667V22.6667C6.66659 22.6667 5.33325 24 5.33325 25.3333H15.9999H26.6666C26.6666 24 25.3333 22.6667 23.9999 22.6667V14.6667C23.9999 10.2533 20.4133 6.66666 15.9999 6.66666Z" stroke="#F6F6F6" stroke-width="4" stroke-linecap="round" stroke-linejoin="round"/>
<path d="M13.3333 26.6667C13.3333 28.1333 14.5333 29.3333 15.9999 29.3333C17.4666 29.3333 18.6666 28.1333 18.6666 26.6667" stroke="#F6F6F6" stroke-width="4" stroke-linecap="round" stroke-linejoin="round"/>
</svg>
