<svg width="135" height="114" viewBox="0 0 135 114" fill="none" xmlns="http://www.w3.org/2000/svg">
<path d="M89.8815 77.9918C85.6779 77.9918 81.5567 77.6404 77.5413 76.9746C78.1377 75.267 78.7946 73.5867 79.5091 71.9381C88.565 51.0437 106.887 35.0926 129.301 29.2612C129.664 26.8314 129.854 24.3441 129.854 21.8127C129.854 13.9936 128.061 6.59461 124.866 0C111.361 12.2983 94.8726 21.3789 76.6124 26.0353C70.3859 27.6221 63.9547 28.6956 57.3641 29.2049C52.1834 38.3377 48.2354 48.2584 45.7467 58.7461C37.1938 50.9009 31.3727 40.1319 29.8762 28.023C29.6248 25.9886 29.4928 23.9171 29.4928 21.8141C29.4928 15.041 30.8409 8.58233 33.2787 2.68781C31.473 2.98981 29.7045 3.40301 27.9895 3.937C26.3033 11.7863 23.2499 19.1263 19.0847 25.6976C18.9514 25.9076 18.8181 26.1163 18.6835 26.3235C14.3026 33.0691 8.74808 38.9829 2.30451 43.7723C1.54871 44.3338 0.779165 44.8801 0 45.41C0.599146 52.8626 3.23896 59.7345 7.36565 65.4753C9.85843 68.9428 12.8871 71.9971 16.3391 74.512C20.2253 77.3453 24.6392 79.4936 29.409 80.7881C31.7218 82.4683 34.1335 84.0195 36.6359 85.4307C36.9121 85.5858 37.1869 85.7423 37.4659 85.8933C37.5937 85.9633 37.7201 86.0333 37.8493 86.1019C39.4488 86.9654 41.0827 87.7712 42.7482 88.5193C50.8711 92.1639 59.7634 94.4015 69.1148 94.9259C70.5261 95.0055 71.9484 95.0494 73.3803 95.0494C73.4778 95.0494 73.574 95.0467 73.6716 95.0453C74.0536 90.669 74.8108 86.3998 75.9157 82.272C76.1809 81.2823 76.4598 80.2994 76.7649 79.3261C85.0169 81.2672 92.4815 85.2426 98.6021 90.6937C113.346 85.4238 125.948 75.6651 134.765 63.0647C122.262 72.4378 106.724 77.9918 89.887 77.9918H89.8815Z" fill="#FFA300"/>
<path d="M9.81859 89.6244C9.06828 90.9066 8.38119 92.2148 7.74356 93.5422C7.7312 93.8016 7.72158 94.0611 7.7257 94.3219C7.77792 97.287 8.92811 100.237 11.1942 102.501C11.6133 102.919 12.0613 103.286 12.523 103.628C10.5978 100.89 10.4012 97.3131 11.9458 94.4084C16.2292 94.1929 20.4727 93.059 24.3589 91.004C24.7327 90.8063 25.1037 90.5991 25.4706 90.3849C24.0703 88.4933 22.9297 86.4726 22.0365 84.371C17.8109 85.6037 13.7048 87.3553 9.81859 89.6258V89.6244Z" fill="#FFA300"/>
<path d="M86.6206 93.8703C90.7377 93.1359 94.7407 92.072 98.5967 90.6938C92.476 85.2427 85.0114 81.2672 76.7594 79.3262C76.4557 80.2994 76.1754 81.2823 75.9102 82.2721C74.8067 86.3999 74.0482 90.6691 73.6661 95.0453C73.8846 95.0453 74.1018 95.0371 74.3203 95.0344C75.9404 96.2684 77.4699 97.6206 78.8853 99.0853C82.924 103.265 86.0723 108.331 87.9934 113.999C88.6146 110.699 88.8303 107.265 88.5829 103.759C88.3397 100.314 87.665 97.0015 86.6192 93.8703H86.6206Z" fill="#F0F2F1"/>
<path d="M18.388 78.5369C16.7225 80.2006 15.2013 81.9536 13.7955 83.767C12.3334 85.6517 11.0004 87.6052 9.8186 89.6231C13.7048 87.3526 17.8109 85.601 22.0365 84.3682C22.9297 86.4699 24.0703 88.4906 25.4706 90.3822C26.8682 89.564 28.2121 88.6196 29.4887 87.5544C30.1745 86.9819 30.8451 86.3807 31.4896 85.7369C32.5903 84.6373 33.5852 83.4718 34.4784 82.2556C38.197 77.1847 40.0988 71.2024 40.1964 65.1967C32.8761 67.5632 25.9598 71.5044 19.9752 77.0296C19.4407 77.5224 18.9075 78.018 18.388 78.5369Z" fill="#F0F2F1"/>
</svg>
