<svg width="373" height="114" viewBox="0 0 373 114" fill="none" xmlns="http://www.w3.org/2000/svg">
<path d="M175.179 35.0981H169.389V54.072H163.353V35.0981H157.563V29.3848H175.18V35.0981H175.179Z" fill="#F0F2F1"/>
<path d="M192.017 54.072L187.85 45.8191H184.037V54.072H178V29.3848H187.497C193.781 29.3848 196.994 32.9827 196.994 37.9204C196.994 40.8828 195.547 43.1039 193.181 44.445L198.441 54.0734H192.015L192.017 54.072ZM184.037 40.74H187.497C189.261 40.74 190.886 40.0344 190.886 37.919C190.886 36.0851 189.509 35.0981 187.497 35.0981H184.037V40.74Z" fill="#F0F2F1"/>
<path d="M215.948 49.4871H206.593L205.146 54.072H198.792L207.688 29.3848H214.82L223.718 54.072H217.398L215.951 49.4871H215.948ZM214.501 44.9021L211.253 34.6396L208.004 44.9021H214.5H214.501Z" fill="#F0F2F1"/>
<path d="M242.566 29.3848V45.2906C242.566 51.1453 239.635 54.5305 233.457 54.5305C228.126 54.5305 224.489 51.321 224.243 46.9118L230.21 45.8191C230.315 47.1946 231.198 48.7115 233.422 48.7115C235.965 48.7115 236.529 46.7375 236.529 45.2906V29.3848H242.566Z" fill="#F0F2F1"/>
<path d="M261.979 48.393V54.0707H246.446V29.3834H261.662V35.0967H252.482V38.9061H260.532V44.3023H252.482V48.393H261.979Z" fill="#F0F2F1"/>
<path d="M281.713 35.0981H275.923V54.072H269.887V35.0981H264.097V29.3848H281.714V35.0981H281.713Z" fill="#F0F2F1"/>
<path d="M308.083 41.7284C308.083 49.0643 302.823 54.5305 295.515 54.5305C288.207 54.5305 282.947 49.0643 282.947 41.7284C282.947 34.3925 288.207 28.962 295.515 28.962C302.823 28.962 308.083 34.4282 308.083 41.7284ZM302.011 41.7284C302.011 38.2362 299.822 34.781 295.515 34.781C291.208 34.781 289.019 38.2376 289.019 41.7284C289.019 45.2193 291.208 48.7115 295.515 48.7115C299.822 48.7115 302.011 45.2206 302.011 41.7284ZM300.917 21.7318L297.493 26.6682H292.937L295.232 21.7318H300.916H300.917Z" fill="#F0F2F1"/>
<path d="M325.096 54.072L320.929 45.8191H317.116V54.072H311.079V29.3848H320.576C326.86 29.3848 330.073 32.9827 330.073 37.9204C330.073 40.8828 328.626 43.1039 326.26 44.445L331.52 54.0734H325.095L325.096 54.072ZM317.117 40.74H320.578C322.342 40.74 323.966 40.0344 323.966 37.919C323.966 36.0851 322.589 35.0981 320.578 35.0981H317.117V40.74Z" fill="#F0F2F1"/>
<path d="M339.673 29.3848V54.072H333.636V29.3848H339.673Z" fill="#F0F2F1"/>
<path d="M358.948 49.4871H349.592L348.145 54.072H341.791L350.687 29.3848H357.819L366.717 54.072H360.397L358.95 49.4871H358.948ZM357.501 44.9021L354.252 34.6396L351.003 44.9021H357.499H357.501Z" fill="#F0F2F1"/>
<path d="M180.404 70.6793C180.404 78.2266 175.532 83.0229 167.27 83.0229H158.62V58.3357H167.27C175.532 58.3357 180.404 63.1677 180.404 70.6793ZM174.367 70.6793C174.367 66.3058 171.33 64.049 167.27 64.049H164.694V77.3453H167.27C171.331 77.3453 174.367 75.0528 174.367 70.6793Z" fill="#F0F2F1"/>
<path d="M207.655 70.6794C207.655 78.0153 202.395 83.4815 195.087 83.4815C187.779 83.4815 182.518 78.0153 182.518 70.6794C182.518 63.3435 187.779 57.913 195.087 57.913C202.395 57.913 207.655 63.3792 207.655 70.6794ZM201.584 70.6794C201.584 67.1871 199.395 63.732 195.088 63.732C190.781 63.732 188.592 67.1885 188.592 70.6794C188.592 74.1702 190.781 77.6625 195.088 77.6625C199.395 77.6625 201.584 74.1716 201.584 70.6794Z" fill="#F0F2F1"/>
<path d="M237.695 75.7942C237.695 79.8149 234.199 83.4828 228.022 83.4828C223.468 83.4828 219.16 81.7189 218.066 77.1353L223.644 75.407C223.961 76.8182 225.268 78.3351 227.95 78.3351C230.034 78.3351 231.587 77.5238 231.587 75.9012C231.587 74.0673 229.15 73.7845 226.362 73.0803C221.419 71.8805 219.194 69.588 219.194 65.4616C219.194 60.7366 223.113 57.9143 228.268 57.9143C232.505 57.9143 236.105 60.1711 237.059 64.0861L231.481 65.4616C231.163 64.2632 230.14 63.0634 227.986 63.0634C226.22 63.0634 225.055 64.0147 225.055 65.4259C225.055 67.3656 227.986 67.8241 229.892 68.3526C235.929 70.0452 237.695 71.9505 237.695 75.7942Z" fill="#F0F2F1"/>
<path d="M260.817 58.3357V73.4303C260.817 80.202 256.968 83.4814 250.508 83.4814C244.048 83.4814 240.163 80.202 240.163 73.4303V58.3357H246.235V72.8304C246.235 76.1098 247.788 77.661 250.508 77.661C253.227 77.661 254.78 76.1098 254.78 72.8304V58.3357H260.817Z" fill="#F0F2F1"/>
<path d="M281.324 75.37L286.373 78.6852C284.149 81.6475 280.619 83.4815 276.382 83.4815C269.074 83.4815 263.814 78.0153 263.814 70.6794C263.814 63.3435 269.074 57.913 276.382 57.913C280.619 57.913 284.149 59.7469 286.373 62.6736L281.324 65.9888C280.266 64.649 278.606 63.732 276.382 63.732C272.074 63.732 269.886 67.1885 269.886 70.6794C269.886 74.1702 272.076 77.6625 276.382 77.6625C278.606 77.6625 280.266 76.7455 281.324 75.37Z" fill="#F0F2F1"/>
<path d="M304.199 77.3453V83.0229H288.665V58.3357H303.881V64.049H294.702V67.8583H302.752V73.2546H294.702V77.3453H304.199Z" fill="#F0F2F1"/>
<path d="M325.591 75.7942C325.591 79.8149 322.095 83.4828 315.918 83.4828C311.364 83.4828 307.056 81.7189 305.962 77.1353L311.54 75.407C311.857 76.8182 313.164 78.3351 315.846 78.3351C317.93 78.3351 319.482 77.5238 319.482 75.9012C319.482 74.0673 317.046 73.7845 314.258 73.0803C309.315 71.8805 307.09 69.588 307.09 65.4616C307.09 60.7366 311.009 57.9143 316.164 57.9143C320.4 57.9143 324.001 60.1711 324.954 64.0861L319.377 65.4616C319.059 64.2632 318.035 63.0634 315.882 63.0634C314.116 63.0634 312.951 64.0147 312.951 65.4259C312.951 67.3656 315.882 67.8241 317.788 68.3526C323.825 70.0452 325.591 71.9505 325.591 75.7942Z" fill="#F0F2F1"/>
<path d="M346.276 75.7942C346.276 79.8149 342.78 83.4828 336.603 83.4828C332.049 83.4828 327.741 81.7189 326.647 77.1353L332.225 75.407C332.543 76.8182 333.849 78.3351 336.532 78.3351C338.615 78.3351 340.168 77.5238 340.168 75.9012C340.168 74.0673 337.732 73.7845 334.943 73.0803C330 71.8805 327.776 69.588 327.776 65.4616C327.776 60.7366 331.695 57.9143 336.849 57.9143C341.086 57.9143 344.686 60.1711 345.64 64.0861L340.062 65.4616C339.745 64.2632 338.721 63.0634 336.568 63.0634C334.802 63.0634 333.636 64.0147 333.636 65.4259C333.636 67.3656 336.568 67.8241 338.474 68.3526C344.51 70.0452 346.276 71.9505 346.276 75.7942Z" fill="#F0F2F1"/>
<path d="M372.999 70.6794C372.999 78.0153 367.738 83.4815 360.43 83.4815C353.122 83.4815 347.862 78.0153 347.862 70.6794C347.862 63.3435 353.122 57.913 360.43 57.913C367.738 57.913 372.999 63.3792 372.999 70.6794ZM366.926 70.6794C366.926 67.1871 364.737 63.732 360.43 63.732C356.124 63.732 353.935 67.1885 353.935 70.6794C353.935 74.1702 356.124 77.6625 360.43 77.6625C364.737 77.6625 366.926 74.1716 366.926 70.6794Z" fill="#F0F2F1"/>
<path d="M89.8815 77.9918C85.6779 77.9918 81.5567 77.6404 77.5413 76.9746C78.1377 75.267 78.7946 73.5867 79.5091 71.9381C88.565 51.0437 106.887 35.0926 129.301 29.2612C129.664 26.8314 129.854 24.3441 129.854 21.8127C129.854 13.9936 128.061 6.59461 124.866 0C111.361 12.2983 94.8726 21.3789 76.6124 26.0353C70.3859 27.6221 63.9547 28.6956 57.3641 29.2049C52.1834 38.3377 48.2354 48.2584 45.7467 58.7461C37.1938 50.9009 31.3727 40.1319 29.8762 28.023C29.6248 25.9886 29.4928 23.9171 29.4928 21.8141C29.4928 15.041 30.8409 8.58233 33.2787 2.68781C31.473 2.98981 29.7045 3.40301 27.9895 3.937C26.3033 11.7863 23.2499 19.1263 19.0847 25.6976C18.9514 25.9076 18.8181 26.1163 18.6835 26.3235C14.3026 33.0691 8.74808 38.9829 2.30451 43.7723C1.54871 44.3338 0.779165 44.8801 0 45.41C0.599146 52.8626 3.23896 59.7345 7.36565 65.4753C9.85843 68.9428 12.8871 71.9971 16.3391 74.512C20.2253 77.3453 24.6392 79.4936 29.409 80.7881C31.7218 82.4683 34.1335 84.0195 36.6359 85.4307C36.9121 85.5858 37.1869 85.7423 37.4659 85.8933C37.5937 85.9633 37.7201 86.0333 37.8493 86.1019C39.4488 86.9654 41.0827 87.7712 42.7482 88.5193C50.8711 92.1639 59.7634 94.4015 69.1148 94.9259C70.5261 95.0055 71.9484 95.0494 73.3803 95.0494C73.4778 95.0494 73.574 95.0467 73.6716 95.0453C74.0536 90.669 74.8108 86.3998 75.9157 82.272C76.1809 81.2823 76.4598 80.2994 76.7649 79.3261C85.0169 81.2672 92.4815 85.2426 98.6021 90.6937C113.346 85.4238 125.948 75.6651 134.765 63.0647C122.262 72.4378 106.724 77.9918 89.887 77.9918H89.8815Z" fill="#FFA300"/>
<path d="M9.81859 89.6244C9.06828 90.9066 8.38119 92.2148 7.74356 93.5422C7.7312 93.8016 7.72158 94.0611 7.7257 94.3219C7.77792 97.287 8.92811 100.237 11.1942 102.501C11.6133 102.919 12.0613 103.286 12.523 103.628C10.5978 100.89 10.4012 97.3131 11.9458 94.4084C16.2292 94.1929 20.4727 93.059 24.3589 91.004C24.7327 90.8063 25.1037 90.5991 25.4706 90.3849C24.0703 88.4933 22.9297 86.4726 22.0365 84.371C17.8109 85.6037 13.7048 87.3553 9.81859 89.6258V89.6244Z" fill="#FFA300"/>
<path d="M86.6206 93.8703C90.7377 93.1359 94.7407 92.072 98.5967 90.6938C92.476 85.2427 85.0114 81.2672 76.7594 79.3262C76.4557 80.2994 76.1754 81.2823 75.9102 82.2721C74.8067 86.3999 74.0482 90.6691 73.6661 95.0453C73.8846 95.0453 74.1018 95.0371 74.3203 95.0344C75.9404 96.2684 77.4699 97.6206 78.8853 99.0853C82.924 103.265 86.0723 108.331 87.9934 113.999C88.6146 110.699 88.8303 107.265 88.5829 103.759C88.3397 100.314 87.665 97.0015 86.6192 93.8703H86.6206Z" fill="#F0F2F1"/>
<path d="M18.388 78.5369C16.7225 80.2006 15.2013 81.9536 13.7955 83.767C12.3334 85.6517 11.0004 87.6052 9.8186 89.6231C13.7048 87.3526 17.8109 85.601 22.0365 84.3682C22.9297 86.4699 24.0703 88.4906 25.4706 90.3822C26.8682 89.564 28.2121 88.6196 29.4887 87.5544C30.1745 86.9819 30.8451 86.3807 31.4896 85.7369C32.5903 84.6373 33.5852 83.4718 34.4784 82.2556C38.197 77.1847 40.0988 71.2024 40.1964 65.1967C32.8761 67.5632 25.9598 71.5044 19.9752 77.0296C19.4407 77.5224 18.9075 78.018 18.388 78.5369Z" fill="#F0F2F1"/>
</svg>
