<svg width="111" height="61" viewBox="0 0 111 61" fill="none" xmlns="http://www.w3.org/2000/svg">
<g clip-path="url(#clip0_3727_4150)">
<path d="M67.1 55.027C66.6712 55.3473 66.4697 55.861 66.5276 56.3596C62.8791 58.5541 58.281 59.7104 53.132 59.7104C42.3945 59.7104 34.6816 55.5128 31.7191 48.1406C32.0643 47.7795 32.2186 47.2508 32.0728 46.7349C31.8542 45.9612 31.0525 45.512 30.2829 45.7312C29.5133 45.9504 29.0632 46.7543 29.2818 47.5259C29.4469 48.1084 29.9442 48.5081 30.508 48.5748C33.6548 56.4907 41.8071 61 53.132 61C58.5318 61 63.3679 59.7727 67.2243 57.445C67.7131 57.7373 68.3497 57.7244 68.8342 57.3612C69.4773 56.8819 69.6102 55.9706 69.13 55.3258C68.6498 54.681 67.7431 54.5477 67.1 55.0292V55.027Z" fill="#FFA300"/>
<path d="M73.2211 39.7173C73.3304 40.5126 74.0614 41.0693 74.8545 40.9618C75.6477 40.8543 76.2029 40.1193 76.0957 39.324C76.01 38.6986 75.5384 38.2214 74.9553 38.0989C73.1032 32.2678 66.863 27.6081 57.1759 24.8806C56.6035 24.7215 56.0012 24.5668 55.3645 24.4034C51.2316 23.3459 46.5456 22.1466 46.5456 18.7593C46.5456 15.8448 48.9336 13.9598 52.6271 13.9598C55.4117 13.9598 57.5982 14.9227 58.923 16.6959C58.6872 17.0678 58.6207 17.5406 58.7858 17.9855C59.0666 18.7378 59.9005 19.1204 60.6529 18.841C61.4032 18.5594 61.7847 17.7233 61.5061 16.9689C61.2745 16.3477 60.6636 15.9802 60.0355 16.0275C58.8908 14.437 56.7022 12.6681 52.6314 12.6681C48.224 12.6681 45.2637 15.114 45.2637 18.7571C45.2637 23.1482 50.6892 24.5367 55.0515 25.6522C55.6818 25.8134 56.2777 25.966 56.8351 26.1207C66.0484 28.7128 71.9713 33.0501 73.7141 38.4213C73.3583 38.733 73.1589 39.2123 73.2275 39.7152L73.2211 39.7173Z" fill="#FFA300"/>
<path d="M92.6221 24.8805C92.0497 24.7215 91.4474 24.5667 90.8107 24.4034C86.6777 23.3459 81.9917 22.1466 81.9917 18.7593C81.9917 15.8448 84.3798 13.9598 88.0733 13.9598C90.8579 13.9598 93.0422 14.9227 94.367 16.6959C94.1312 17.0677 94.0626 17.5406 94.2298 17.9855C94.5085 18.7378 95.3445 19.1203 96.0948 18.8409C96.845 18.5615 97.2266 17.7233 96.9479 16.971C96.7164 16.3499 96.1055 15.9802 95.4774 16.0296C94.3327 14.4391 92.144 12.6724 88.0733 12.6724C83.6659 12.6724 80.7056 15.1183 80.7056 18.7614C80.7056 23.1525 86.1311 24.5409 90.4934 25.6564C91.1237 25.8176 91.7196 25.9702 92.2769 26.125C105.478 29.839 109.713 33.854 109.713 42.6469C109.713 51.4397 102.309 59.7125 88.1547 59.7125C83.413 59.7125 76.7055 58.8635 71.6722 54.8185C71.4364 54.6293 71.2307 54.4552 71.0356 54.2812C70.8427 54.1114 70.6454 53.9265 70.4332 53.7202C68.8276 52.1447 67.5886 50.2748 66.7376 48.1448C67.0827 47.7859 67.237 47.2572 67.0934 46.7413C66.8769 45.9676 66.0752 45.5162 65.3056 45.7333C64.5361 45.9504 64.0837 46.7542 64.3003 47.5258C64.4632 48.1104 64.9605 48.5102 65.5264 48.5768C66.4439 50.8917 67.788 52.9271 69.535 54.6401C69.7623 54.8636 69.9766 55.0614 70.1824 55.2462C70.3925 55.4332 70.6154 55.6223 70.8684 55.8244C76.191 60.1037 83.2072 61.0021 88.1547 61.0021C94.9844 61.0021 100.807 59.087 104.993 55.4633C108.867 52.1103 111 47.5602 111 42.6469C111 33.2328 106.363 28.7493 92.6221 24.8827V24.8805Z" fill="#FFA300"/>
<path d="M73.7932 8.07507C74.1597 7.69249 74.2755 7.16161 74.1469 6.68446C77.7653 3.72269 82.8779 2.1021 88.7237 2.1021C97.5555 2.1021 104.597 6.34916 107.446 13.2743C107.105 13.6354 106.957 14.1641 107.103 14.6778C107.326 15.4494 108.13 15.8943 108.9 15.6729C109.669 15.4516 110.113 14.6434 109.892 13.8718C109.725 13.2872 109.221 12.8896 108.653 12.8294C107.217 9.31523 104.745 6.37925 101.438 4.28151C97.8577 2.01182 93.4611 0.8125 88.7237 0.8125C82.5607 0.8125 77.1458 2.54915 73.2937 5.71941C72.7621 5.50233 72.1276 5.61624 71.7053 6.05685C71.1501 6.63502 71.1651 7.55493 71.7417 8.11376C72.3184 8.67258 73.2358 8.65539 73.7932 8.07722V8.07507Z" fill="#FFA300"/>
<path d="M79.939 42.677C79.6882 41.914 78.8693 41.4992 78.1083 41.7507C77.3473 42.0021 76.9336 42.8232 77.1844 43.5862C77.3902 44.2095 77.9754 44.6007 78.5992 44.5856C79.8168 46.5243 82.4792 49.1379 87.9948 49.1379C93.5104 49.1379 96.9853 46.7436 96.9853 42.8877C96.9853 38.7352 92.3979 37.6476 87.0881 36.3881C86.252 36.1904 85.386 35.984 84.5028 35.7605C74.5349 33.3339 69.6045 28.9106 68.702 21.5126C69.1372 21.2483 69.4202 20.7647 69.403 20.2187C69.3751 19.417 68.7042 18.7873 67.9046 18.8152C67.105 18.8432 66.4769 19.5159 66.5048 20.3176C66.5241 20.913 66.9014 21.4138 67.4201 21.6201C68.3612 29.6543 73.596 34.4322 84.1941 37.0114C85.0816 37.2371 85.9519 37.4434 86.7922 37.6412C92.4815 38.9888 95.6991 39.898 95.6991 42.8855C95.6991 45.8731 92.818 47.8462 87.9948 47.8462C83.1716 47.8462 80.8222 45.6474 79.7397 43.9795C80.0012 43.6141 80.0912 43.1348 79.9412 42.677H79.939Z" fill="#FFA300"/>
<path d="M14.401 57.5826V14.437H2.75029C2.51235 13.9577 2.02146 13.6267 1.45125 13.6267C0.649524 13.6267 0 14.278 0 15.0818C0 15.8856 0.649524 16.5369 1.45125 16.5369C2.02146 16.5369 2.51235 16.2059 2.75029 15.7266H13.1148V57.5826C12.6368 57.8211 12.3067 58.3133 12.3067 58.8851C12.3067 59.6889 12.9562 60.3401 13.7579 60.3401C14.5596 60.3401 15.2091 59.6889 15.2091 58.8851C15.2091 58.3133 14.879 57.8211 14.401 57.5826Z" fill="#FFA300"/>
<path d="M28.7484 57.5824V15.7264H32.0582C31.8931 16.7302 31.8074 17.7683 31.8074 18.8408C31.8074 28.5579 37.0314 34.1633 48.74 37.0134C49.6275 37.239 50.4978 37.4454 51.3381 37.6453C57.0273 38.9929 60.245 39.9021 60.245 42.8896C60.245 45.8772 57.366 47.8503 52.5428 47.8503C47.7196 47.8503 45.3681 45.6515 44.2877 43.9815C44.5492 43.6161 44.6392 43.1368 44.4892 42.679C44.2384 41.916 43.4174 41.5011 42.6564 41.7526C41.8954 42.0041 41.4816 42.8273 41.7324 43.5903C41.9382 44.2136 42.5235 44.6048 43.1473 44.5897C44.3648 46.5284 47.0294 49.142 52.5428 49.142C58.0563 49.142 61.5311 46.7477 61.5311 42.8918C61.5311 38.7393 56.9437 37.6517 51.6339 36.3922C50.7979 36.1945 49.9319 35.9881 49.0487 35.7646C37.8632 33.0414 33.0914 27.9819 33.0914 18.8451C33.0914 8.8314 41.2008 2.10401 53.2717 2.10401C59.6662 2.10401 65.4176 4.45538 69.051 8.55414C69.2225 8.74543 69.3983 8.95391 69.5998 9.20539C69.7777 9.42677 69.9535 9.66104 70.1272 9.90607C70.8753 10.9485 71.4991 12.079 71.9943 13.2784C71.6513 13.6394 71.5034 14.1682 71.6513 14.6819C71.8742 15.4535 72.6781 15.8984 73.4477 15.677C74.2172 15.4556 74.661 14.6475 74.4402 13.8759C74.273 13.2934 73.7713 12.8958 73.2054 12.8334C72.6695 11.5245 71.99 10.2908 71.1754 9.15595C70.991 8.89588 70.8002 8.64011 70.603 8.39724C70.3844 8.12642 70.1957 7.90504 70.0114 7.69871C66.3007 3.51182 60.5515 1.0358 54.1334 0.831614V0.816569H2.75029C2.51235 0.337269 2.02146 0.00627306 1.45125 0.00627306C0.649524 -0.000174919 0 0.651071 0 1.45492C0 2.25877 0.649524 2.91001 1.45125 2.91001C2.02146 2.91001 2.51235 2.57902 2.75029 2.09972H44.6435C42.1376 2.90356 39.8911 4.06635 38.0261 5.56228C35.1129 7.89645 33.1836 10.9162 32.3219 14.4368H27.4644V57.5824C26.9863 57.821 26.6562 58.3132 26.6562 58.8849C26.6562 59.6887 27.3057 60.34 28.1075 60.34C28.9092 60.34 29.5587 59.6887 29.5587 58.8849C29.5587 58.3132 29.2286 57.821 28.7505 57.5824H28.7484Z" fill="#FFA300"/>
</g>
<defs>
<clipPath id="clip0_3727_4150">
<rect width="111" height="61" fill="white"/>
</clipPath>
</defs>
</svg>
